<?xml version="1.0" encoding="UTF-8"?>
<svg id="Layer_3" xmlns="http://www.w3.org/2000/svg" version="1.1" viewBox="0 0 80 80">
  <!-- Generator: Adobe Illustrator 29.5.0, SVG Export Plug-In . SVG Version: 2.1.0 Build 137)  -->
  <path d="M62.70822,43.69046h-5.39731c-3.9197,0-7.11605,3.19016-7.11605,7.11605v5.52715h-4.85944v-10.83173c1.63836-.15456,2.89959-1.52708,2.89959-3.19635v-6.7451l.79754.01855c.57497,0,1.07575-.34622,1.27359-.89028.19784-.55643.03091-1.14994-.42659-1.51471l-1.35397-1.0943,5.24894-8.32782c.7419.18547,1.52089.22875,2.30607.14838,2.81304-.30912,5.16238-2.42354,5.76208-5.18711.55024-2.52246-.3895-4.99545-2.20715-6.5349-.61825-.52551-.50696-1.49616.21639-1.84857.46987-.22875.93356-.46987,1.3787-.71717,3.83933-2.12678,6.52871-4.80998,7.78376-7.76521l.11129-.25348h-1.91657l-.04946.1051c-1.91657,3.87024-6.78838,7.18406-13.37892,9.08208-.17311.05564-.3524.1051-.53169.15456-3.49929.9521-7.24588,1.47143-11.14085,1.54562h-.51933c-.47605.00618-.95829,0-1.43434,0-3.88879-.07419-7.61683-.5997-11.07903-1.54562-.18547-.04946-.35858-.09892-.53788-.15456-6.57818-1.90421-11.45617-5.21803-13.37274-9.08827l-.04946-.1051h-1.91657l.11128.25348c1.25505,2.94905,3.94443,5.63843,7.78376,7.76521.44514.2473.90264.48223,1.3787.71717.72953.3524.83464,1.32305.21639,1.84857-1.81765,1.53944-2.76357,4.01244-2.20715,6.5349.60588,2.76357,2.94905,4.88417,5.76208,5.18711.78518.08655,1.56417.0371,2.30607-.14838l5.24894,8.32782-1.35397,1.0943c-.4575.37095-.62443.96447-.42659,1.51471.19784.54406.69862.89028,1.30451.89028l.76663-.01855v6.7451c0,1.66927,1.26123,3.04179,2.89959,3.19635v10.83173h-4.85944v-5.52715c0-3.92588-3.18398-7.11605-7.11605-7.11605h-5.39732c-3.93207,0-7.11605,3.18399-7.11605,7.11606v20.29094c0,3.9197,3.19017,7.11605,7.11605,7.11605h5.39732c.17311,0,.34622-.00618.52551-.01855.18547-.01236.37095-.03091.55024-.06801,3.43747-.51933,6.03411-3.54257,6.03411-7.0295v-5.12529h18.07143v5.12529c0,3.48693,2.59665,6.51017,6.04029,7.0295.17311.03091.35859.04946.55643.06801.16693.01236.34004.01855.51315.01855h5.39732c3.92588,0,7.11605-3.19016,7.11605-7.11605v-20.29094c0-3.92588-3.18399-7.11605-7.11605-7.11605,0,0,.00617.00617.00618.00617ZM30.29959,71.09745c0,2.25043-1.45289,4.26592-3.5673,5.00164v-19.57378c0-.56879-.46369-1.03248-1.03248-1.03248s-1.03248.46369-1.03248,1.03248v19.86436h-5.04491c-2.91195,0-5.28603-2.3679-5.28603-5.28603v-20.29094c0-2.70793,2.06495-4.97691,4.72961-5.25512v25.92938c0,.56261.4575,1.01393,1.01393,1.01393s1.01393-.4575,1.01393-1.01393v-25.96029h3.9197c2.91196,0,5.28603,2.3679,5.28603,5.28603v20.29094s0-.00617,0-.00618ZM46.41117,33.69336l-4.30302-.1051h-2.13914l-4.04953.1051v-10.71426c0-.76045.62443-1.38488,1.38488-1.38488h7.72812c.76045,0,1.38488.62443,1.38488,1.38488v10.71426s-.00619,0-.00619,0ZM55.34487,12.4194c2.67084,0,4.84089,2.17006,4.84089,4.84089s-2.17006,4.84708-4.84089,4.84708c-.26585,0-.53169-.02473-.78517-.06182-.48842-.08037-.9521-.23494-1.38488-.45132-.42659-.2102-.82227-.48842-1.18086-.83464-.43278-.41423-.77899-.89028-1.03248-1.42197-.30912-.64916-.46369-1.34778-.46369-2.07114,0-2.67084,2.17005-4.84089,4.84708-4.84089,0,0,0-.00618,0-.00618ZM31.36916,19.33761c-.25348.53169-.5997,1.00775-1.03248,1.42197-.35858.34622-.75426.62443-1.18704.83464-.42659.21639-.89028.37095-1.38488.45132-.25348.04328-.51315.06182-.78518.06182-2.67084,0-4.84089-2.17006-4.84089-4.84708s2.17006-4.84089,4.84089-4.84089,4.84708,2.17006,4.84708,4.84089c0,.72335-.15456,1.42197-.46369,2.07114,0,0,.00618.00618.00618.00618ZM33.37229,19.2016c.19166-.62443.29058-1.27359.29058-1.9413,0-1.36633-.40804-2.66465-1.17467-3.7775,2.46682.43896,5.04491.68626,7.66011.73572.33386.00618.67389.01237,1.02011.01237.25348,0,.50696,0,.76045-.01237h.17929c2.62756-.04328,5.23039-.29058,7.72812-.73572-.76663,1.11285-1.17467,2.41117-1.17467,3.7775,0,.66771.09274,1.31687.29058,1.9413l-6.84402-.09274-.93356-.01237h-.00618l-1.19322.01855-6.59672.09274s-.00618-.00618-.00618-.00618ZM35.91947,42.30558v-6.7822l5.26748-.12365,5.22421.12365v6.7822c0,.76045-.62443,1.38488-1.38488,1.38488h-7.72812c-.76045,0-1.38488-.62443-1.38488-1.38488h.00618ZM43.51158,45.51429v10.81318h-4.69251v-10.81318h4.69251ZM50.15776,64.13596h-17.98487v-5.97847h17.98487v5.97847ZM67.99425,71.09745c0,2.91195-2.37408,5.28603-5.28603,5.28603h-5.04492v-19.86435c0-.56879-.46369-1.03248-1.03248-1.03248s-1.03248.46369-1.03248,1.03248v19.57378c-2.10823-.72953-3.5673-2.75121-3.5673-5.00164v-20.29094c0-2.91195,2.36789-5.28603,5.28603-5.28603h3.9197v25.96029c0,.56261.4575,1.01393,1.01393,1.01393s1.01393-.4575,1.01393-1.01393v-25.92938c2.67084.27821,4.72961,2.54719,4.72961,5.25512,0,0,0,20.29712,0,20.29712Z" fill="#ef5323" stroke="#ef5323" stroke-miterlimit="10" stroke-width=".5"/>
</svg>