<?xml version="1.0" encoding="UTF-8"?>
<svg id="Layer_3" xmlns="http://www.w3.org/2000/svg" version="1.1" viewBox="0 0 80 80">
  <!-- Generator: Adobe Illustrator 29.5.0, SVG Export Plug-In . SVG Version: 2.1.0 Build 137)  -->
  <path d="M73.77907,40.23146c-1.83954-4.35357-4.4762-8.26119-7.83196-11.61695-3.35576-3.35576-7.26338-5.99243-11.61694-7.83196-4.50407-1.90643-9.29244-2.87636-14.22574-2.87636s-9.72167.96436-14.22574,2.87079c-4.35357,1.83954-8.26119,4.4762-11.61695,7.83196s-5.99243,7.26338-7.83196,11.61695c-1.90643,4.50965-2.87636,9.29801-2.87636,14.23132,0,.72467.58531,1.31555,1.31555,1.31555h5.71371c.72467,0,1.31555-.58531,1.31555-1.31555s-.58531-1.31555-1.31555-1.31555h-4.37587c.30659-8.13298,3.46725-15.75869,9.00258-21.72325l3.09377,3.09376c.25642.25642.59088.38463.93092.38463s.6745-.12821.93092-.38463c.51284-.51284.51284-1.34342,0-1.85626l-3.09376-3.09377c5.97013-5.53533,13.59584-8.69041,21.72325-8.997v4.37029c0,.72467.58531,1.31555,1.31555,1.31555s1.31555-.58531,1.31555-1.31555v-4.37029c8.13298.30659,15.75869,3.46725,21.72325,8.997l-3.09377,3.09376c-.51284.51284-.51284,1.34342,0,1.85626.25642.25642.59088.38463.93092.38463s.6745-.12821.93092-.38463l3.09377-3.09377c5.53533,5.97013,8.69599,13.59584,9.00258,21.72325h-4.37586c-.72467,0-1.31555.58531-1.31555,1.31554s.58531,1.31555,1.31555,1.31555h5.71371c.34561,0,.68007-.13936.93092-.38463.24527-.24527.38463-.57973.38463-.93092,0-4.9333-.96436-9.72167-2.87079-14.22574h-.01673Z" fill="#fff" stroke="#fff" stroke-miterlimit="10" stroke-width=".8"/>
  <path d="M49.19619,32.36606c-.66892-.27314-1.43818.04459-1.7169.71352l-6.74496,16.38859c-.20625-.02787-.41808-.03902-.6299-.03902-2.77045,0-5.02806,2.25761-5.02806,5.02806,0,1.62214.77483,3.06589,1.96775,3.98566l-.6745,1.64443c-.27872.66892.0446,1.43818.71352,1.7169.16166.06689.33446.10034.50169.10034.51841,0,1.00896-.30659,1.21521-.81385l.6745-1.63886c.20625.02787.41808.03902.6299.03902,2.77045,0,5.02806-2.25761,5.02806-5.02806,0-1.62214-.77483-3.06589-1.96775-3.98566l6.74496-16.38859c.27872-.66892-.0446-1.43818-.71352-1.7169v-.00558ZM38.12553,55.81735c-.26757-.38463-.42365-.85287-.42365-1.36014,0-1.17061.84173-2.14612,1.95102-2.35795.14493-.02787.29544-.0446.45152-.0446.81943,0,1.54409.4125,1.9789,1.0424.26757.38463.42365.85287.42365,1.36014,0,1.17061-.84173,2.14612-1.95102,2.35795-.14493.02787-.29544.0446-.45152.0446-.81943,0-1.5441-.4125-1.9789-1.04241Z" fill="#fff" stroke="#fff" stroke-miterlimit="10" stroke-width=".8"/>
</svg>