<?xml version="1.0" encoding="UTF-8"?>
<svg id="Layer_1" xmlns="http://www.w3.org/2000/svg" version="1.1" viewBox="0 0 80 80">
  <!-- Generator: Adobe Illustrator 29.5.0, SVG Export Plug-In . SVG Version: 2.1.0 Build 137)  -->
  <path d="M45.56536,45.49579c0,1.7858-1.57824,3.24182-3.49899,3.24182h-3.49899c-1.92746,0-3.49899-1.46224-3.49899-3.24182v-1.62402H5.31694v22.69891c0,1.7858,1.57824,3.24182,3.49899,3.24182h62.99518c1.92747,0,3.49899-1.46224,3.49899-3.24182v-22.69892h-29.75145v1.62402h.00672,0Z" fill="none" stroke="#fff" stroke-miterlimit="10" stroke-width="3"/>
  <path d="M71.81111,20.81327h-17.50164v-5.68837c0-3.41168-2.71323-6.1249-6.12491-6.1249h-15.7488c-3.41168,0-6.1249,2.71323-6.1249,6.1249v5.68837H8.81593c-1.92746,0-3.49899,1.57824-3.49899,3.49899v14.00266h29.75145v-1.75285h10.49696v1.75285h29.75145v-14.00266c0-1.92746-1.57824-3.49899-3.49899-3.49899M34.35847,22.82805v-5.68837c0-.52384.23761-.87307.59403-.87307h10.71534c.35641,0,.59403.34923.59403.87307v5.68837" fill="none" stroke="#fff" stroke-miterlimit="10" stroke-width="3"/>
</svg>