<?xml version="1.0" encoding="UTF-8"?>
<svg id="Ebene_1" xmlns="http://www.w3.org/2000/svg" version="1.1" viewBox="0 0 80 80">
  <!-- Generator: Adobe Illustrator 29.5.0, SVG Export Plug-In . SVG Version: 2.1.0 Build 137)  -->
  <circle cx="40.10271" cy="40.07707" r="8.59465" fill="none" stroke="#fff" stroke-dasharray="40 4 10 5" stroke-miterlimit="10" stroke-width="3"/>
  <circle cx="40.10271" cy="40.07707" r="18.54541" fill="none" stroke="#fff" stroke-miterlimit="10" stroke-width="3"/>
  <g>
    <g>
      <circle cx="9.57797" cy="40" r="4.91123" fill="none" stroke="#fff" stroke-miterlimit="10" stroke-width="2"/>
      <line x1="14.48921" y1="40" x2="19.14287" y2="40" fill="none" stroke="#fff" stroke-miterlimit="10" stroke-width="2"/>
    </g>
    <g>
      <circle cx="70.42203" cy="40" r="4.91123" fill="none" stroke="#fff" stroke-miterlimit="10" stroke-width="2"/>
      <line x1="65.51079" y1="40" x2="60.85713" y2="40" fill="none" stroke="#fff" stroke-miterlimit="10" stroke-width="2"/>
    </g>
  </g>
  <g>
    <g>
      <circle cx="40" cy="9.57797" r="4.91123" fill="none" stroke="#fff" stroke-miterlimit="10" stroke-width="2"/>
      <line x1="40" y1="14.48921" x2="40" y2="19.14287" fill="none" stroke="#fff" stroke-miterlimit="10" stroke-width="2"/>
    </g>
    <g>
      <circle cx="40" cy="70.42203" r="4.91123" fill="none" stroke="#fff" stroke-miterlimit="10" stroke-width="2"/>
      <line x1="40" y1="65.51079" x2="40" y2="60.85713" fill="none" stroke="#fff" stroke-miterlimit="10" stroke-width="2"/>
    </g>
  </g>
  <circle cx="18.48838" cy="61.51162" r="4.91123" fill="none" stroke="#fff" stroke-miterlimit="10" stroke-width="2"/>
  <g>
    <g>
      <circle cx="18.48838" cy="18.48838" r="4.91123" fill="none" stroke="#fff" stroke-miterlimit="10" stroke-width="2"/>
      <line x1="21.96114" y1="21.96114" x2="25.25178" y2="25.25178" fill="none" stroke="#fff" stroke-miterlimit="10" stroke-width="2"/>
    </g>
    <g>
      <circle cx="61.51162" cy="61.51162" r="4.91123" fill="none" stroke="#fff" stroke-miterlimit="10" stroke-width="2"/>
      <line x1="58.03885" y1="58.03885" x2="54.74822" y2="54.74822" fill="none" stroke="#fff" stroke-miterlimit="10" stroke-width="2"/>
    </g>
  </g>
  <polyline points="40.70632 39.70242 59.31417 20.6991 59.31417 15.20417 68.86786 5.65048 68.86786 10.95808 73.9257 10.95808 64.16618 20.71761 59.31417 20.6991" fill="none" stroke="#fff" stroke-linecap="round" stroke-miterlimit="10" stroke-width="2"/>
  <path d="M16.35377,17.19069s2.05625,2.18331,2.18331,2.18331,6.83163-6.83163,6.83163-6.83163" fill="none" stroke="#fff" stroke-miterlimit="10" stroke-width="2"/>
  <path d="M59.4258,60.6985s2.05625,2.18331,2.18331,2.18331,6.83163-6.83163,6.83163-6.83163" fill="none" stroke="#fff" stroke-miterlimit="10" stroke-width="2"/>
  <path d="M16.39712,60.6985s2.05625,2.18331,2.18331,2.18331,6.83163-6.83163,6.83163-6.83163" fill="none" stroke="#fff" stroke-miterlimit="10" stroke-width="2"/>
</svg>