<?xml version="1.0" encoding="UTF-8"?>
<svg id="Layer_1" xmlns="http://www.w3.org/2000/svg" version="1.1" viewBox="0 0 80 80">
  <!-- Generator: Adobe Illustrator 29.5.0, SVG Export Plug-In . SVG Version: 2.1.0 Build 137)  -->
  <path d="M31.5623,51.06543h-1.95046c-6.09274,0-11.05694-4.96421-11.05694-11.05694,0-2.95504,1.1481-5.73396,3.23554-7.82793,2.08745-2.09397,4.86636-3.24207,7.8214-3.24859h1.95046v2.3549h-1.95046c-4.80113,0-8.70857,3.91396-8.70204,8.71509,0,4.7946,3.90744,8.70204,8.70857,8.70857h1.95046v2.3549h-.00652Z" fill="#fff" stroke="#fff" stroke-miterlimit="10"/>
  <rect x="13.44065" y="36.40111" width="18.14122" height="2.3549" fill="#fff" stroke="#fff" stroke-miterlimit="10"/>
  <rect x="13.44065" y="41.23486" width="18.14122" height="2.3549" fill="#fff" stroke="#fff" stroke-miterlimit="10"/>
  <path d="M76.96427,32.15446c-2.09397-5.747-6.308-10.33286-11.85278-12.91608-5.49912-2.55712-11.65056-2.84415-17.3519-.80889-4.97073-1.78738-10.34591-1.7939-15.38187,0-2.40056-.85455-4.9903-1.32422-7.68441-1.32422C12.06425,17.10528,1.79662,27.37291,1.79662,40.00196s10.26763,22.89668,22.89668,22.89668c2.68759,0,5.2708-.46315,7.66484-1.3177,4.97073,1.77433,10.42419,1.77433,15.39492.00652,5.02292,1.78737,10.53508,1.76781,15.54496-.05871,9.28262-3.38558,15.05571-12.18547,15.05571-21.53984,0-2.60278-.44358-5.25123-1.38946-7.83445ZM4.15152,40.00196c0-11.3244,9.21738-20.54178,20.54178-20.54178s20.54178,9.21738,20.54178,20.54178-9.21738,20.54178-20.54178,20.54178S4.15152,51.32636,4.15152,40.00196ZM47.10726,59.31736c-3.66608,1.33727-7.63875,1.5982-11.42877.76975,7.09732-3.89439,11.91149-11.43529,11.91149-20.08515s-4.80765-16.17771-11.89192-20.07863c4.37059-.95892,8.90426-.46968,13.0335,1.44817,4.97725,2.31576,8.76075,6.43194,10.63945,11.59185,3.88787,10.64598-1.61777,22.46614-12.26375,26.35402ZM62.48913,59.31736c-3.65956,1.33727-7.62571,1.59168-11.40268.77627,7.41044-4.05748,11.8854-11.86583,11.8854-20.10472,0-2.60278-.44358-5.25123-1.38945-7.83445-1.92436-5.2708-5.62958-9.56964-10.50899-12.23113,4.37059-.95892,8.91079-.46968,13.04002,1.44817,4.97725,2.31576,8.76075,6.43194,10.63945,11.59185,3.88787,10.64598-1.61777,22.46614-12.26375,26.35401Z" fill="#fff" stroke="#fff" stroke-miterlimit="10"/>
</svg>