<?xml version="1.0" encoding="UTF-8"?>
<svg id="Layer_3" xmlns="http://www.w3.org/2000/svg" version="1.1" viewBox="0 0 80 80">
  <!-- Generator: Adobe Illustrator 29.5.0, SVG Export Plug-In . SVG Version: 2.1.0 Build 137)  -->
  <g id="kJLExq">
    <path d="M36.84447,77.57438c-.30888,0-.60712-.07456-.8734-.28758-.5006-.41007-.51658-1.06512-.48995-1.6456.25563-5.98595.18639-11.41273-.21302-16.59452-.28758-3.73856-.76156-7.0564-1.43791-10.14524-.11716-.52191-.20237-.93198.03728-1.34737.24498-.42072.67102-.54853,1.16098-.69233.0213-.00533.04261-.01598.06923-.03195-.26095-.12249-.51126-.26095-.74026-.41007l-.17575.15444c-1.36867,1.23021-2.78528,2.4977-4.3297,3.6001-3.40837,2.42314-7.51972,5.16581-12.20091,7.17356-2.34858,1.00653-5.11789,2.07165-8.21205,1.96514-1.832-.06391-3.21665-.64972-4.23916-1.79472-.26628-.29823-.76156-.85209-.63374-1.52844.12781-.67635.79351-1.00653,1.15033-1.18228,5.62382-2.79593,10.43814-5.53328,14.71991-8.36116,3.04091-2.00774,5.61849-3.94626,7.88186-5.92737.458-.39942.78819-.69233,1.29412-.67635.48995.01598.79884.30888,1.21423.71895-.02663-.34616-.02663-.687,0-1.02784-.18107-.06391-.36746-.12781-.54853-.19172-.79884-.27693-1.62963-.56451-2.43912-.86807-2.22609-.83612-4.51077-1.90656-7.18421-3.36577-3.11014-1.69354-6.71024-3.82377-9.86298-6.75284-1.19293-1.11305-2.52965-2.48705-3.37642-4.29242-.39409-.83079-.88405-2.10893-.62309-3.58944l.01065-.04793c.0213-.13314.04793-.28758.09053-.44202.16509-.65505.40474-1.29944,1.02251-1.54442.69765-.27693,1.40595.17574,1.74679.39409.92133.58581,1.84798,1.19293,2.74268,1.78407.82547.53788,1.67756,1.09707,2.519,1.64028.92665.59646,1.91188,1.19826,2.92907,1.7894,3.06754,1.78407,6.20963,3.45098,9.34107,4.94747,2.061.98523,4.10602,1.81602,6.07117,2.47107,1.13435.37812,1.41128.90002,1.10772,2.06633,0,.01598-.00532.04261-.01065.06923.11184-.06923.21835-.13314.33019-.19172,0-.00532,0-.01598-.00532-.0213-.45267-2.00242-.8734-3.96756-1.07577-6.01258-.42072-4.20189-.77221-9.18663-.17042-14.31517.22367-1.93319.62842-4.45219,1.75212-6.79544.6444-1.34737,1.78407-3.20068,4.17526-3.73856.39409-.09053,1.1237-.25563,1.65093.19172.52723.44202.48463,1.19293.46333,1.59235-.28226,5.25103-.31421,10.02275-.10651,14.57612.21302,4.64923.687,8.68603,1.44856,12.3447.23965,1.15565-.0213,1.5817-1.1663,1.91188-.02663.01065-.06391.02663-.10651.04793.29823.15444.58581.31953.85209.47398,3.07286-2.88114,6.72621-5.45872,11.8228-8.35584,3.1634-1.79472,5.87944-2.977,8.55821-3.72258,1.62963-.45267,3.57879-.86807,5.6398-.51126,1.33672.229,2.42846.81481,3.23796,1.73614.23965.2716.73493.84144.60179,1.52312-.12249.59646-.63907.92133-1.1237,1.16098-4.122,2.00242-7.80198,3.97821-11.25828,6.03921-4.76107,2.84386-8.45703,5.44807-11.63108,8.19075-.34616.29823-.67102.58049-1.145.56451s-.77753-.31421-1.09707-.63375c-.03195-.02663-.07988-.05858-.13847-.09586.01598.229.01598.45267.01065.67635,1.72017.52723,3.49891,1.07577,5.20309,1.81603.33551.14379.67102.30356.99589.45267.12249.05858.2503.11716.37279.17042l.61244.28226c1.65626.75623,3.36577,1.53377,4.99007,2.46574l.14379.07988c1.29944.74026,2.64149,1.50714,3.91963,2.35923,2.05035,1.36335,4.40426,3.07819,6.35342,5.43209,1.07577,1.29944,1.71484,2.58823,1.95449,3.94626.14379.82547.09053,1.63495-.15977,2.41249-.18639.57516-.39942,1.10772-.93198,1.32075-.53789.21302-1.03849-.05326-1.30477-.20237l-.03728-.0213c-.46865-.29291-.92133-.56984-1.35803-.84144-.94795-.58581-1.84265-1.145-2.73735-1.68821-.27693-.16509-.54853-.33551-.82547-.50593-1.03316-.63375-2.1036-1.28879-3.16872-1.89058-3.34979-1.89591-6.10845-3.32316-8.69668-4.50012-2.81191-1.27814-5.17647-2.21012-7.43451-2.9344-1.17163-.37279-1.45389-.87872-1.15565-2.08231v-.07988c-.22367.15444-.45267.29291-.68167.41539.07988.36214.17042.72961.25563,1.08642.23433.99056.4793,2.01307.62309,3.05688.67635,4.84096,1.3314,11.22633.38344,17.69692-.36214,2.48172-.92133,4.29774-1.8107,5.89009-.94795,1.69886-2.16751,2.7054-3.71726,3.08351-.26628.0639-.54853.12249-.83079.12249,0,0,.00532-.00532.00533-.00532ZM35.41722,48.45942c.00532.03195.01598.06391.0213.09053.69233,3.1634,1.17695,6.55579,1.46986,10.36891.40474,5.2457.4793,10.7417.21835,16.79156v.18107c.04793-.01065.10119-.0213.16509-.03728,1.1024-.26628,1.94916-.99588,2.67344-2.29.78819-1.40595,1.28347-3.04623,1.61898-5.32558.916-6.26821.27693-12.49915-.38344-17.23359-.13314-.96926-.35681-1.90656-.59647-2.90244-.09586-.40475-.19705-.82547-.28758-1.24086l-.01065-.04793c-.2077-.916.24498-1.33672.6657-1.52844.55386-.25563,1.05979-.61777,1.55507-1.1024.27693-.27161.687-.33019,1.02251-.13847.72961.41539.78286,2.23674.68167,2.64682-.01065.03728-.01598.07456-.02663.10651.02663.01065.05326.01598.08521.02663,2.32195.74558,4.74509,1.69886,7.61559,3.00363,2.63084,1.19293,5.43209,2.64682,8.82449,4.56403,1.09175.61777,2.17284,1.27814,3.21665,1.91721.27161.16509.54853.33551.82014.50061.8947.54853,1.79472,1.1024,2.748,1.69354.37812.23433.77221.4793,1.17695.72961.01065-.03195.0213-.06391.03195-.09586.17042-.52191.2077-1.05447.10651-1.61365-.19172-1.08109-.69765-2.09295-1.59768-3.17937-1.81603-2.18882-4.05277-3.81312-6.00193-5.11256-1.23021-.82014-2.54563-1.57105-3.81844-2.29533l-.14379-.07988c-1.5604-.88937-3.23796-1.65626-4.86226-2.39651l-.61777-.28226c-.12781-.05858-.2503-.11716-.37812-.17575-.31421-.14379-.6444-.29823-.96393-.4367-1.6456-.71363-3.4137-1.25684-5.11789-1.77874l-.14912-.04261c-.90535-.27693-.95861-.96926-.9373-1.25151.04261-.63907-.01065-1.29412-.15977-1.94917-.08521-.37279.07988-.75091.41539-.9373.79884-.44735,2.4764.68167,2.68409.88937h0l.00533-.00533c3.25393-2.81191,7.02445-5.46937,11.8654-8.36117,3.49358-2.08763,7.21617-4.08472,11.38077-6.10845.02663-.01598.05326-.02663.07456-.03728-.0213-.02663-.04261-.04793-.06923-.07988-.56451-.63907-1.31009-1.03316-2.27935-1.20358-1.74146-.29823-3.46696.07456-4.92084.47398-2.5403.70298-5.14451,1.83733-8.18542,3.56814-5.02735,2.85984-8.60615,5.38949-11.59912,8.21205-.53789.50593-1.13967.56451-1.7894.18107l-.0213-.01065c-.60179-.35681-1.1663-.69233-1.77342-.81481-.38877-.07988-.67635-.41007-.69233-.80416-.03728-.9373,1.75744-1.85863,2.0397-1.93851h.00533c-.77753-3.74388-1.26216-7.86056-1.47518-12.59501-.21302-4.61196-.17575-9.43161.10651-14.74122v-.11716c-.03728.00533-.07456.01598-.11716.02663-1.31009.29823-2.25272,1.17695-3.05688,2.84919-1.01719,2.11958-1.38998,4.46284-1.603,6.27354-.58049,4.96877-.23965,9.847.17575,13.96368.19705,1.94916.60712,3.86105,1.04381,5.81021.00532.03195.01598.05858.02663.09053.28758.97458-.19705,1.43258-.64972,1.64561-.4367.20237-.8734.50593-1.3314.92133-.27693.25563-.68167.29291-1.00653.10119-.75623-.458-.62309-2.39119-.55386-2.66812.00532-.02663.01065-.04793.0213-.07456-.01598-.00532-.03195-.01065-.05326-.01598-2.03437-.67635-4.13798-1.53377-6.26289-2.54563-3.17405-1.51779-6.35875-3.20068-9.46356-5.01137-1.03849-.60179-2.04502-1.21956-2.99298-1.82668-.84677-.54321-1.70419-1.10772-2.53498-1.65093-.8947-.58581-1.81602-1.1876-2.7267-1.77342-.08521-.05326-.14912-.09586-.2077-.12249-.0213.07456-.05326.17042-.08521.29291-.02663.09586-.0426.2077-.06391.31953l-.01065.04793c-.13847.78819.01598,1.59235.49528,2.60421.7296,1.54974,1.93319,2.78528,3.00895,3.79181,3.01961,2.80658,6.51319,4.86758,9.53279,6.51319,2.60421,1.42193,4.82498,2.46042,6.97652,3.26991.78819.29823,1.60833.58049,2.39651.85209.2503.08521.5006.17042.75091.26095.69233.24498,1.00653.70298.92665,1.36335-.08521.67635-.03195,1.38465.15444,2.09828.09586.37812-.06391.76156-.39942.95328-.71895.41539-2.25805-.42072-2.54563-.7083-.04793-.04793-.09586-.09586-.14912-.14379-.05326.04793-.10651.09586-.15977.13847-2.31663,2.02905-4.95279,4.01016-8.05761,6.06051-4.34035,2.86516-9.21326,5.63447-14.89566,8.45703-.03728.0213-.07456.03728-.10119.05326.0213.02663.04793.05858.07988.09053.71895.80416,1.69354,1.19826,3.06754,1.24618,2.48172.08521,4.79835-.67102,7.50907-1.83732,4.5374-1.94384,8.55821-4.62793,11.89203-6.99782,1.46986-1.04381,2.84919-2.28468,4.18591-3.48293l.26628-.23965s.02663-.02663.04261-.04261c.7083-.74558,1.35802-.39409,1.603-.2077.49528.37812,1.09707.65505,1.84265.84677.37812.09586.63374.42605.6444.81481.01598.8734-1.64561,1.81603-1.98644,1.91721-.02663.00533-.05326.01598-.07988.02663,0,0,.01597-.00531.01597-.00531ZM42.62273,46.30256h0ZM42.28722,33.78744h0Z" fill="#fff" stroke="#fff" stroke-miterlimit="10" stroke-width=".25"/>
  </g>
  <g>
    <path d="M25.09091,26.37422l-.51126-.24498c-.80949-.39409-1.93851-1.23554-1.98644-1.26749l-.76688-.57516.687-.67102c2.0184-1.97579,4.62261-3.69595,7.33333-4.84096l1.04381-.44202.09586,1.12902s.12249,1.40595.28226,2.2474l.12249.63907-.59646.26628c-2.19414.96926-3.87702,2.04502-5.2883,3.37642l-.41539.38877s0-.00532,0-.00533ZM24.39858,24.10553c.13846.09586.28758.18639.43137.2716,1.32074-1.16098,2.84919-2.13023,4.72912-3.01428-.03195-.2077-.05858-.42072-.07988-.62309-1.82668.88937-3.6001,2.06633-5.07528,3.36044,0,0-.00532.00532-.00533.00532Z" fill="#fff" stroke="#fff" stroke-miterlimit="10" stroke-width=".25"/>
    <path d="M16.54867,46.14812l-.19705-.79884c-.44202-1.78407-.6657-3.63205-.6657-5.49068,0-1.26749.10119-2.59888.28758-3.75454l.19705-1.23554,1.05447.67102c.60179.38344,1.05447.58049,1.93851.83079l.68168.19705-.09586.70298c-.11716.86807-.18107,1.74146-.18107,2.58823,0,1.26749.12781,2.54563.38344,3.79182l.10651.52723-.7083.49528c-.58581.41007-1.13967.79884-1.67223,1.145l-.11716.07456-1.00653.2503s-.00533.00532-.00533.00532ZM17.4487,37.51535c-.07456.76689-.11716,1.57637-.11716,2.34326,0,1.33672.12249,2.66279.37279,3.96224.17574-.12249.35681-.24498.53788-.37279-.2077-1.18761-.31421-2.39119-.31421-3.58944,0-.69233.03728-1.40595.11184-2.11426-.20237-.06923-.39409-.14379-.58581-.22367l-.00533-.00533Z" fill="#fff" stroke="#fff" stroke-miterlimit="10" stroke-width=".25"/>
    <path d="M33.15384,62.01303l-.99588-.28758c-2.81723-.80949-5.42677-2.13556-7.7434-3.95691l-.77753-.60712.73493-.65505c.19705-.17575.36746-.31953.51658-.44735.38877-.33019.6444-.54853,1.07044-1.02784l.50593-.56451.60712.458c1.70951,1.28879,3.6001,2.2687,5.63447,2.91309l.57516.18107v.60179c0,.72428-.07456,2.29-.07988,2.35391,0,0-.04793,1.03849-.04793,1.03849ZM26.23059,57.07621c1.65626,1.17695,3.4563,2.09828,5.37351,2.75333.00532-.2077.01598-.42072.0213-.62309-1.75744-.61777-3.41903-1.46986-4.94747-2.5403-.15444.15444-.29823.28226-.44735.41007Z" fill="#fff" stroke="#fff" stroke-miterlimit="10" stroke-width=".25"/>
    <path d="M45.65831,61.3207v-1.05447c-.14912-.39409-.22367-.71363-.29823-1.02251-.06391-.27161-.13314-.54853-.2503-.90535l-.2503-.73493.71363-.29291c1.98644-.81481,3.80779-1.95449,5.41079-3.3924l.44735-.39942.51658.30356c.22367.13314.41539.23965.59647.34616.47398.27161.84677.48463,1.44323.86275l.88937.56451-.76156.72428c-1.97046,1.87993-4.3297,3.34979-7.21084,4.50544-.05858.03195-.12249.06391-.18639.07988-.01598,0-.03195.01065-.05326.01598l-1.00653.39942ZM46.8832,58.54075c.02663.11184.05326.22367.07988.32486.01065.04793.0213.09586.03195.14379,1.99177-.86275,3.70128-1.90123,5.17647-3.15274-.14379-.08521-.28758-.16509-.44735-.26095-.03195-.01598-.05858-.03728-.09053-.05326-1.44323,1.21956-3.03558,2.22077-4.75042,2.9983Z" fill="#fff" stroke="#fff" stroke-miterlimit="10" stroke-width=".25"/>
    <path d="M60.70309,43.96463l-.97991-.37812c-.05858-.0213-1.40063-.54321-2.22077-.95328l-.50593-.2503.05326-.56451c.05858-.60179.08521-1.20891.08521-1.8107,0-1.17695-.11184-2.36456-.33019-3.52554l-.10119-.53788.458-.30356c.75623-.49528,1.17695-.70298,1.71484-.96393.12781-.06391.26628-.12781.42072-.2077l.94263-.46865.229,1.02784c.36214,1.62963.54853,3.30186.54853,4.97942,0,.97458-.06391,1.95449-.18639,2.91309l-.13314,1.04381h.00532ZM58.73262,41.39237c.19172.08521.38877.17042.57516.2503.04261-.54321.06391-1.08642.06391-1.63495,0-1.20358-.10119-2.40716-.30356-3.58944-.17042.09053-.34616.18639-.55386.30888.17575,1.08642.26095,2.18349.26095,3.27523,0,.458-.01598.92133-.04793,1.38465l.00532.00532Z" fill="#fff" stroke="#fff" stroke-miterlimit="10" stroke-width=".25"/>
    <path d="M50.47264,25.21857l-.59114-.44202c-1.85863-1.40063-4.1007-2.30598-5.65577-2.81723l-.6444-.21302.08521-.67102c.01598-.18107-.00533-1.31542-.03728-2.26337l-.03728-1.1237,1.08109.30888c3.00896.85742,5.80489,2.27935,8.08956,4.11135l.95861.76688-1.07577.59114c-.74026.41007-1.54442,1.09174-1.69354,1.23021l-.48995.52191s.01065,0,.01065,0ZM50.97325,24.67536h-.00533.00533ZM45.31215,20.59064c1.46454.52191,3.33382,1.32607,5.0167,2.48172.14379-.11716.31421-.24498.49528-.37812-1.64028-1.16098-3.51488-2.10893-5.5173-2.78528,0,.23965.01065.47398.01065.68167h-.00532Z" fill="#fff" stroke="#fff" stroke-miterlimit="10" stroke-width=".25"/>
  </g>
</svg>